<svg width="60" height="61" viewBox="0 0 60 61" fill="none" xmlns="http://www.w3.org/2000/svg">
    <path fill-rule="evenodd" clip-rule="evenodd" d="M13.0354 18.4296C13.6355 17.8568 14.6084 17.8568 15.2085 18.4296L20.2352 23.2284C23.1523 21.7631 26.4747 20.9338 30 20.9338C33.5253 20.9338 36.8477 21.7631 39.7648 23.2284L44.7915 18.4296C45.3916 17.8568 46.3645 17.8568 46.9646 18.4296C47.5647 19.0025 47.5647 19.9313 46.9646 20.5042L42.4372 24.8263C47.6303 28.4761 51 34.3532 51 40.9816C51 41.1451 50.998 41.3081 50.9939 41.4706H9.00612C9.00205 41.3081 9 41.1451 9 40.9816C9 34.3532 12.3697 28.4761 17.5628 24.8263L13.0354 20.5042C12.4353 19.9313 12.4353 19.0025 13.0354 18.4296ZM21.8049 34.625C22.9364 34.625 23.8537 33.7493 23.8537 32.6691C23.8537 31.5889 22.9364 30.7132 21.8049 30.7132C20.6734 30.7132 19.7561 31.5889 19.7561 32.6691C19.7561 33.7493 20.6734 34.625 21.8049 34.625ZM40.2439 32.6691C40.2439 33.7493 39.3266 34.625 38.1951 34.625C37.0636 34.625 36.1463 33.7493 36.1463 32.6691C36.1463 31.5889 37.0636 30.7132 38.1951 30.7132C39.3266 30.7132 40.2439 31.5889 40.2439 32.6691Z" fill="#23C891"/>
</svg>