<svg width="60" height="61" viewBox="0 0 60 61" fill="none" xmlns="http://www.w3.org/2000/svg">
    <path fill-rule="evenodd" clip-rule="evenodd" d="M35.85 14.949C34.4769 16.5934 32.1712 17.8267 30.3317 17.8267C30.1245 17.8267 29.9172 17.801 29.7877 17.7753C29.7618 17.6725 29.71 17.3642 29.71 17.0559C29.71 14.949 30.7722 12.8936 31.938 11.5832C33.4147 9.86175 35.8759 8.57708 37.9226 8.5C37.9744 8.73124 38.0003 9.01387 38.0003 9.29649C38.0003 11.3777 37.0936 13.4588 35.85 14.949ZM27.1617 47.7341C26.25 48.1277 25.386 48.5006 24.2137 48.5006C21.7065 48.5006 19.9668 46.1865 17.9713 43.3582C15.6432 40.0156 13.75 34.8475 13.75 29.9622C13.75 22.0944 18.8411 17.929 23.8555 17.929C25.3191 17.929 26.6564 18.4684 27.8455 18.9479C28.7973 19.3318 29.6542 19.6774 30.4049 19.6774C31.0561 19.6774 31.8676 19.3552 32.8134 18.9795C34.1344 18.4549 35.7174 17.8262 37.4916 17.8262C38.6173 17.8262 42.7362 17.929 45.4481 21.8372C45.4326 21.8494 45.3994 21.8714 45.3511 21.9034C44.6838 22.3461 41.1245 24.7076 41.1245 29.5508C41.1245 35.5417 46.318 37.6758 46.497 37.7273C46.4924 37.7388 46.4819 37.7717 46.465 37.8242C46.2943 38.3552 45.4804 40.8868 43.734 43.4611C42.0199 45.9294 40.2035 48.4492 37.4916 48.4492C36.155 48.4492 35.3033 48.0701 34.424 47.6787C33.4855 47.261 32.5156 46.8293 30.891 46.8293C29.2578 46.8293 28.18 47.2946 27.1617 47.7341Z" fill="#23C891"/>
</svg>