<svg width="60" height="61" viewBox="0 0 60 61" fill="none" xmlns="http://www.w3.org/2000/svg">
    <path fill-rule="evenodd" clip-rule="evenodd" d="M22 10.5C15.3726 10.5 10 15.8726 10 22.5V38.5C10 45.1274 15.3726 50.5 22 50.5H38C44.6274 50.5 50 45.1274 50 38.5V22.5C50 15.8726 44.6274 10.5 38 10.5H22ZM30.7338 20.2534C31.1537 19.5261 32.0837 19.2769 32.811 19.6968C33.5383 20.1167 33.7875 21.0467 33.3676 21.774L26.6162 33.4678H31.4385C33.0063 33.4678 34.0726 35.0589 33.4766 36.509H19.1036C18.2638 36.509 17.583 35.8282 17.583 34.9884C17.583 34.1486 18.2638 33.4678 19.1036 33.4678H23.194C23.226 33.3118 23.2832 33.1582 23.3672 33.0128L28.2556 24.5459L26.7076 21.8648C26.2877 21.1374 26.5369 20.2074 27.2642 19.7875C27.9915 19.3676 28.9215 19.6168 29.3414 20.3441L30.0114 21.5047L30.7338 20.2534ZM40.8915 33.4678C41.7313 33.4678 42.4121 34.1486 42.4121 34.9884C42.4121 35.8282 41.7313 36.509 40.8915 36.509H38.6789L40.2395 39.2121C40.6594 39.9394 40.4102 40.8694 39.6829 41.2893C38.9556 41.7093 38.0244 41.4582 37.6058 40.7302C36.2916 38.4442 35.2553 36.6157 34.2191 34.7871L34.219 34.7871L34.2188 34.7867L34.2187 34.7865L34.218 34.7853C33.3859 33.317 32.5537 31.8486 31.5776 30.1433C30.7053 28.6194 31.0217 26.6901 32.3409 25.5313L36.923 33.4678H40.8915ZM20.9518 37.2339C20.9518 37.2339 21.849 36.8206 22.8103 37.2339C23.7716 37.6472 23.9639 38.2454 23.9639 38.2454L22.4839 40.6807C22.0513 41.3926 21.1293 41.6286 20.4079 41.2121C19.6715 40.7869 19.422 39.8434 19.8521 39.1098L20.9518 37.2339Z" fill="#23C891"/>
</svg>